<svg xmlns="http://www.w3.org/2000/svg" width="139.559" height="110.874" viewBox="0 0 139.559 110.874">
  <g id="ETIC" transform="translate(-150.943 -258.88)">
    <g id="ETIC-2" data-name="ETIC" transform="translate(177.775 283.346)">
      <path id="Tracé_96" data-name="Tracé 96" d="M293.858,319.908c-14.9-9.05-62.315-8.424-77.3-.873-8.7,19.351-7.232,45.52,0,67,21.628,7.5,54.561,5.652,76.436,0C300.127,365,301.549,342.071,293.858,319.908Z" transform="translate(-210.567 -313.245)" fill="#d4d4d4"/>
    </g>
    <g id="Letters" transform="translate(197.83 312.527)" style="mix-blend-mode: overlay;isolation: isolate">
      <path id="Tracé_97" data-name="Tracé 97" d="M257.8,380.732v9h6.642v2.655H257.8v2.43h8.609v2.655H255.13V378.09h11.282v2.642Z" transform="translate(-255.13 -378.09)" fill="#fff"/>
      <path id="Tracé_98" data-name="Tracé 98" d="M296.656,380.745h-4.77v16.732h-2.7V380.745h-4.77V378.09h12.236Z" transform="translate(-271.239 -378.09)" fill="#fff"/>
      <rect id="Rectangle_36" data-name="Rectangle 36" width="2.66" height="19.391" transform="translate(27.312 0)" fill="#fff"/>
      <path id="Tracé_99" data-name="Tracé 99" d="M340.657,382.5a7.061,7.061,0,0,0-2.088-1.35,7.147,7.147,0,0,0-2.813-.558,7.232,7.232,0,0,0-2.817.558,7.435,7.435,0,0,0-2.3,1.553,7.2,7.2,0,0,0,7.929,11.7,7.535,7.535,0,0,0,2.088-1.35l1.8,1.8a10.531,10.531,0,0,1-2.9,1.872,9.9,9.9,0,0,1-3.794.756,10.058,10.058,0,0,1-3.807-.756,10.188,10.188,0,0,1-3.1-2.075,9.954,9.954,0,0,1-2.093-3.1,9.68,9.68,0,0,1,5.184-12.7,9.806,9.806,0,0,1,3.807-.756,9.662,9.662,0,0,1,3.794.756,9.351,9.351,0,0,1,2.9,1.872Z" transform="translate(-294.107 -378.09)" fill="#fff"/>
    </g>
    <path id="Tracé_100" data-name="Tracé 100" d="M178.654,261.089c-4.95-3-20.733-2.795-25.719-.288-2.894,6.431-2.408,15.121,0,22.254,7.2,2.489,18.154,1.877,25.431,0A33.477,33.477,0,0,0,178.654,261.089Z" fill="#d4d4d4" fill-rule="evenodd"/>
    <path id="Tracé_101" data-name="Tracé 101" d="M438.482,300.463c-2.97-1.8-12.421-1.692-15.409-.176-1.733,3.888-1.44,9.135,0,13.451,4.311,1.5,10.877,1.134,15.238,0A20.407,20.407,0,0,0,438.482,300.463Z" transform="translate(-149.01 -22.137)" fill="#d4d4d4" fill-rule="evenodd"/>
    <path id="Tracé_102" data-name="Tracé 102" d="M202.222,483.034c-1.949-1.206-8.141-1.125-10.1-.112-1.139,2.588-.945,6.089,0,8.96,2.826,1,7.128.756,9.986,0A13.834,13.834,0,0,0,202.222,483.034Z" transform="translate(-22.217 -122.792)" fill="#d4d4d4" fill-rule="evenodd"/>
    <path id="Tracé_103" data-name="Tracé 103" d="M392.276,460.878c-2.628-1.647-10.99-1.535-13.636-.158-1.535,3.528-1.274,8.294,0,12.209,3.816,1.35,9.626,1.031,13.5,0a18.991,18.991,0,0,0,.135-12.052Z" transform="translate(-124.648 -110.427)" fill="#d4d4d4" fill-rule="evenodd"/>
  </g>
</svg>
