<svg xmlns="http://www.w3.org/2000/svg" width="395.045" height="51.38" viewBox="0 0 395.045 51.38">
  <g id="gdg" transform="translate(-34.023 -53.614)">
    <path id="Tracé_126" data-name="Tracé 126" d="M260.469,91.238q0,5.975-3.53,9.461a13.707,13.707,0,0,1-10.427,4.2,14.831,14.831,0,1,1,0-29.662,15.705,15.705,0,0,1,5.905,1.11,11.756,11.756,0,0,1,4.561,3.132L254.365,82.1a8.8,8.8,0,0,0-3.391-2.49,11.174,11.174,0,0,0-4.481-.891,10.676,10.676,0,0,0-7.852,3.212,11.988,11.988,0,0,0,0,16.258,10.676,10.676,0,0,0,7.852,3.212,10.546,10.546,0,0,0,7.056-2.38,9.493,9.493,0,0,0,3.252-6.543H246.492V89.067H260.26A11.988,11.988,0,0,1,260.469,91.238Z" transform="translate(-99.275 -10.857)" fill="#d4d4d4"/>
    <path id="Tracé_127" data-name="Tracé 127" d="M298.34,104.962V76.58h8.684a14.175,14.175,0,0,1,10.457,3.929,13.831,13.831,0,0,1,3.944,10.267,13.848,13.848,0,0,1-3.944,10.292q-3.944,3.909-10.457,3.909Zm3.65-24.9v21.411h5.034a10.547,10.547,0,0,0,7.813-2.838q2.833-2.838,2.858-7.872a10.642,10.642,0,0,0-2.858-7.852,10.463,10.463,0,0,0-7.813-2.853Z" transform="translate(-132.704 -11.531)" fill="#d4d4d4"/>
    <path id="Tracé_128" data-name="Tracé 128" d="M379.274,91.238q0,5.975-3.53,9.461a13.743,13.743,0,0,1-10.457,4.2,14.831,14.831,0,1,1,0-29.662,15.735,15.735,0,0,1,5.91,1.11,11.756,11.756,0,0,1,4.561,3.132l-2.584,2.639a8.729,8.729,0,0,0-3.391-2.49,11.139,11.139,0,0,0-4.481-.891,10.671,10.671,0,0,0-7.847,3.212,11.988,11.988,0,0,0,0,16.258,10.671,10.671,0,0,0,7.848,3.212,10.542,10.542,0,0,0,7.061-2.38,9.52,9.52,0,0,0,3.252-6.543h-10.3V89.087h13.763a11.984,11.984,0,0,1,.2,2.151Z" transform="translate(-158.911 -10.857)" fill="#d4d4d4"/>
    <path id="Tracé_129" data-name="Tracé 129" d="M431.568,104.962H427.52L438.231,76.58h4.123l10.706,28.382h-4.043l-2.739-7.693h-11.95Zm8.644-23.9-4.641,12.812h9.461l-4.641-12.812Z" transform="translate(-197.561 -11.531)" fill="#d4d4d4"/>
    <path id="Tracé_130" data-name="Tracé 130" d="M487.88,76.55v28.382h-3.65V76.55Z" transform="translate(-226.033 -11.516)" fill="#d4d4d4"/>
    <path id="Tracé_131" data-name="Tracé 131" d="M507.551,122.553a10.8,10.8,0,0,1-3.052-.413,9.959,9.959,0,0,1-2.6-1.17,8.33,8.33,0,0,1-1.992-1.788,7.469,7.469,0,0,1-1.27-2.3l3.451-1.429a5.477,5.477,0,0,0,2.061,2.734,5.791,5.791,0,0,0,3.411,1.031,6.016,6.016,0,0,0,4.641-1.783,6.921,6.921,0,0,0,1.643-4.92v-1.862h-.154a7.255,7.255,0,0,1-2.8,2.44,8.39,8.39,0,0,1-3.824.891A8.6,8.6,0,0,1,500.521,111a10.765,10.765,0,0,1-2.694-7.379,10.616,10.616,0,0,1,2.694-7.335,8.56,8.56,0,0,1,6.548-2.988,8.326,8.326,0,0,1,3.824.891,7.215,7.215,0,0,1,2.8,2.44h.154V93.922h3.486v18.6a9.929,9.929,0,0,1-2.654,7.34A9.733,9.733,0,0,1,507.551,122.553Zm.12-11.9a5.587,5.587,0,0,0,4.4-1.942,8.027,8.027,0,0,0,0-10.088,5.622,5.622,0,0,0-4.4-1.992,5.7,5.7,0,0,0-4.4,1.992,7.245,7.245,0,0,0-1.783,5.034,7.15,7.15,0,0,0,1.783,5.039A5.7,5.7,0,0,0,507.671,110.658Z" transform="translate(-232.858 -19.925)" fill="#d4d4d4"/>
    <path id="Tracé_132" data-name="Tracé 132" d="M550.238,78.49a2.574,2.574,0,1,1-.752-1.822A2.49,2.49,0,0,1,550.238,78.49Zm-.752,6.7v19.419h-3.65V85.192Z" transform="translate(-256.589 -11.195)" fill="#d4d4d4"/>
    <path id="Tracé_133" data-name="Tracé 133" d="M570.679,114a9.292,9.292,0,0,1-7.061-2.913,10.351,10.351,0,0,1-2.773-7.419,10.562,10.562,0,0,1,2.694-7.394,9.7,9.7,0,0,1,13.783-.159q2.559,2.793,2.554,7.833l-.035.4H564.569a6.334,6.334,0,0,0,1.907,4.6,6.156,6.156,0,0,0,9.839-1.743l3.252,1.588a9.645,9.645,0,0,1-3.63,3.844A10.028,10.028,0,0,1,570.679,114Zm-5.831-12.687h11.144a4.81,4.81,0,0,0-1.648-3.351,5.746,5.746,0,0,0-3.984-1.329,5.288,5.288,0,0,0-3.55,1.27,6.07,6.07,0,0,0-1.962,3.411Z" transform="translate(-264.496 -19.931)" fill="#d4d4d4"/>
    <path id="Tracé_134" data-name="Tracé 134" d="M609.415,113.441H605.77V94.021h3.486v3.172h.159a5.278,5.278,0,0,1,2.281-2.634,6.329,6.329,0,0,1,3.391-1.09,6.836,6.836,0,0,1,2.7.5l-1.11,3.53a6.08,6.08,0,0,0-2.141-.279,4.715,4.715,0,0,0-3.59,1.668,5.557,5.557,0,0,0-1.529,3.884Z" transform="translate(-287.054 -20.009)" fill="#d4d4d4"/>
    <path id="Tracé_135" data-name="Tracé 135" d="M646.723,107.953a5.278,5.278,0,0,1-2.221,4.282,9.65,9.65,0,0,1-10.745.214,8.4,8.4,0,0,1-3.177-4.023l3.257-1.389a5.975,5.975,0,0,0,2.081,2.719,5.054,5.054,0,0,0,2.988.971,5.258,5.258,0,0,0,2.913-.752,2.141,2.141,0,0,0,1.17-1.788q0-1.857-2.853-2.734l-3.371-.837q-5.676-1.424-5.671-5.477a5.059,5.059,0,0,1,2.186-4.257,9.917,9.917,0,0,1,10.193-.373,6.647,6.647,0,0,1,2.913,3.291l-3.252,1.344a4.1,4.1,0,0,0-1.8-1.922,5.671,5.671,0,0,0-2.8-.692,4.7,4.7,0,0,0-2.554.712,2.057,2.057,0,0,0-1.13,1.748c0,1.11,1.041,1.9,3.132,2.375l2.933.757Q646.7,103.551,646.723,107.953Z" transform="translate(-299.51 -19.914)" fill="#d4d4d4"/>
    <path id="Tracé_136" data-name="Tracé 136" d="M260.469,91.238q0,5.975-3.53,9.461a13.707,13.707,0,0,1-10.427,4.2,14.831,14.831,0,1,1,0-29.662,15.705,15.705,0,0,1,5.905,1.11,11.756,11.756,0,0,1,4.561,3.132L254.365,82.1a8.8,8.8,0,0,0-3.391-2.49,11.174,11.174,0,0,0-4.481-.891,10.676,10.676,0,0,0-7.852,3.212,11.988,11.988,0,0,0,0,16.258,10.676,10.676,0,0,0,7.852,3.212,10.546,10.546,0,0,0,7.056-2.38,9.493,9.493,0,0,0,3.252-6.543H246.492V89.067H260.26A11.988,11.988,0,0,1,260.469,91.238Z" transform="translate(-99.275 -10.857)" fill="#d4d4d4"/>
    <path id="Tracé_137" data-name="Tracé 137" d="M298.34,104.962V76.58h8.684a14.175,14.175,0,0,1,10.457,3.929,13.831,13.831,0,0,1,3.944,10.267,13.848,13.848,0,0,1-3.944,10.292q-3.944,3.909-10.457,3.909Zm3.65-24.9v21.411h5.034a10.547,10.547,0,0,0,7.813-2.838q2.833-2.838,2.858-7.872a10.642,10.642,0,0,0-2.858-7.852,10.463,10.463,0,0,0-7.813-2.853Z" transform="translate(-132.704 -11.531)" fill="#d4d4d4"/>
    <path id="Tracé_138" data-name="Tracé 138" d="M379.274,91.238q0,5.975-3.53,9.461a13.743,13.743,0,0,1-10.457,4.2,14.831,14.831,0,1,1,0-29.662,15.735,15.735,0,0,1,5.91,1.11,11.756,11.756,0,0,1,4.561,3.132l-2.584,2.639a8.729,8.729,0,0,0-3.391-2.49,11.139,11.139,0,0,0-4.481-.891,10.671,10.671,0,0,0-7.847,3.212,11.988,11.988,0,0,0,0,16.258,10.671,10.671,0,0,0,7.848,3.212,10.542,10.542,0,0,0,7.061-2.38,9.52,9.52,0,0,0,3.252-6.543h-10.3V89.087h13.763a11.984,11.984,0,0,1,.2,2.151Z" transform="translate(-158.911 -10.857)" fill="#d4d4d4"/>
    <path id="Tracé_139" data-name="Tracé 139" d="M431.568,104.962H427.52L438.231,76.58h4.123l10.706,28.382h-4.043l-2.739-7.693h-11.95Zm8.644-23.9-4.641,12.812h9.461l-4.641-12.812Z" transform="translate(-197.561 -11.531)" fill="#d4d4d4"/>
    <path id="Tracé_140" data-name="Tracé 140" d="M487.88,76.55v28.382h-3.65V76.55Z" transform="translate(-226.033 -11.516)" fill="#d4d4d4"/>
    <path id="Tracé_141" data-name="Tracé 141" d="M507.551,122.553a10.8,10.8,0,0,1-3.052-.413,9.959,9.959,0,0,1-2.6-1.17,8.33,8.33,0,0,1-1.992-1.788,7.469,7.469,0,0,1-1.27-2.3l3.451-1.429a5.477,5.477,0,0,0,2.061,2.734,5.791,5.791,0,0,0,3.411,1.031,6.016,6.016,0,0,0,4.641-1.783,6.921,6.921,0,0,0,1.643-4.92v-1.862h-.154a7.255,7.255,0,0,1-2.8,2.44,8.39,8.39,0,0,1-3.824.891A8.6,8.6,0,0,1,500.521,111a10.765,10.765,0,0,1-2.694-7.379,10.616,10.616,0,0,1,2.694-7.335,8.56,8.56,0,0,1,6.548-2.988,8.326,8.326,0,0,1,3.824.891,7.215,7.215,0,0,1,2.8,2.44h.154V93.922h3.486v18.6a9.929,9.929,0,0,1-2.654,7.34A9.733,9.733,0,0,1,507.551,122.553Zm.12-11.9a5.587,5.587,0,0,0,4.4-1.942,8.027,8.027,0,0,0,0-10.088,5.622,5.622,0,0,0-4.4-1.992,5.7,5.7,0,0,0-4.4,1.992,7.245,7.245,0,0,0-1.783,5.034,7.15,7.15,0,0,0,1.783,5.039A5.7,5.7,0,0,0,507.671,110.658Z" transform="translate(-232.858 -19.925)" fill="#d4d4d4"/>
    <path id="Tracé_142" data-name="Tracé 142" d="M550.238,78.49a2.574,2.574,0,1,1-.752-1.822A2.49,2.49,0,0,1,550.238,78.49Zm-.752,6.7v19.419h-3.65V85.192Z" transform="translate(-256.589 -11.195)" fill="#d4d4d4"/>
    <path id="Tracé_143" data-name="Tracé 143" d="M570.679,114a9.292,9.292,0,0,1-7.061-2.913,10.351,10.351,0,0,1-2.773-7.419,10.562,10.562,0,0,1,2.694-7.394,9.7,9.7,0,0,1,13.783-.159q2.559,2.793,2.554,7.833l-.035.4H564.569a6.334,6.334,0,0,0,1.907,4.6,6.156,6.156,0,0,0,9.839-1.743l3.252,1.588a9.645,9.645,0,0,1-3.63,3.844A10.028,10.028,0,0,1,570.679,114Zm-5.831-12.687h11.144a4.81,4.81,0,0,0-1.648-3.351,5.746,5.746,0,0,0-3.984-1.329,5.288,5.288,0,0,0-3.55,1.27,6.07,6.07,0,0,0-1.962,3.411Z" transform="translate(-264.496 -19.931)" fill="#d4d4d4"/>
    <path id="Tracé_144" data-name="Tracé 144" d="M609.415,113.441H605.77V94.021h3.486v3.172h.159a5.278,5.278,0,0,1,2.281-2.634,6.329,6.329,0,0,1,3.391-1.09,6.836,6.836,0,0,1,2.7.5l-1.11,3.53a6.08,6.08,0,0,0-2.141-.279,4.715,4.715,0,0,0-3.59,1.668,5.557,5.557,0,0,0-1.529,3.884Z" transform="translate(-287.054 -20.009)" fill="#d4d4d4"/>
    <path id="Tracé_145" data-name="Tracé 145" d="M646.723,107.953a5.278,5.278,0,0,1-2.221,4.282,9.65,9.65,0,0,1-10.745.214,8.4,8.4,0,0,1-3.177-4.023l3.257-1.389a5.975,5.975,0,0,0,2.081,2.719,5.054,5.054,0,0,0,2.988.971,5.258,5.258,0,0,0,2.913-.752,2.141,2.141,0,0,0,1.17-1.788q0-1.857-2.853-2.734l-3.371-.837q-5.676-1.424-5.671-5.477a5.059,5.059,0,0,1,2.186-4.257,9.917,9.917,0,0,1,10.193-.373,6.647,6.647,0,0,1,2.913,3.291l-3.252,1.344a4.1,4.1,0,0,0-1.8-1.922,5.671,5.671,0,0,0-2.8-.692,4.7,4.7,0,0,0-2.554.712,2.057,2.057,0,0,0-1.13,1.748c0,1.11,1.041,1.9,3.132,2.375l2.933.757Q646.7,103.551,646.723,107.953Z" transform="translate(-299.51 -19.914)" fill="#d4d4d4"/>
    <g id="Group" transform="translate(34.023 59.404)">
      <path id="Rectangle-Copy" d="M60.522,66.118,37.707,79.293a6.533,6.533,0,0,0-2.39,8.923h0a6.533,6.533,0,0,0,8.923,2.4L67.055,77.436a6.533,6.533,0,0,0,2.4-8.923h0a6.538,6.538,0,0,0-8.928-2.4Z" transform="translate(-34.233 -65.242)" fill="#d4d4d4" fill-rule="evenodd"/>
      <path id="Rectangle-Copy-2" d="M66.641,105.953,43.826,92.778a6.538,6.538,0,0,0-8.928,2.4h0a6.533,6.533,0,0,0,2.4,8.923l22.815,13.175a6.533,6.533,0,0,0,8.923-2.415h0a6.533,6.533,0,0,0-2.39-8.9Z" transform="translate(-34.023 -78.627)" fill="#d4d4d4" fill-rule="evenodd"/>
      <path id="Rectangle" d="M126.878,106.367,149.7,93.2a6.538,6.538,0,0,1,8.928,2.39h0a6.538,6.538,0,0,1-2.39,8.928l-22.82,13.17a6.533,6.533,0,0,1-8.928-2.39h0A6.543,6.543,0,0,1,126.878,106.367Z" transform="translate(-79.003 -78.837)" fill="#d4d4d4" fill-rule="evenodd"/>
      <path id="Tracé_146" data-name="Tracé 146" d="M133.827,66.537l22.815,13.17a6.538,6.538,0,0,1,2.4,8.928h0a6.533,6.533,0,0,1-8.928,2.39l-22.815-13.17a6.533,6.533,0,0,1-2.39-8.928h0a6.533,6.533,0,0,1,8.923-2.39Z" transform="translate(-79.21 -65.452)" fill="#d4d4d4" fill-rule="evenodd"/>
    </g>
    <path id="Tracé_147" data-name="Tracé 147" d="M739.537,103.072H724.862c-8.271-3.67-14.714-9.989-19.27-18.882a1.076,1.076,0,0,0,.035-.5,146.659,146.659,0,0,1-.762-27.187,1.16,1.16,0,0,0-1.08-1.205,1.185,1.185,0,0,0-1.225,1.09,158.378,158.378,0,0,0,.1,21,74.97,74.97,0,0,1-2.609-9.013.689.689,0,0,0-.06-.179,105.9,105.9,0,0,1,1.992-13.15,1.16,1.16,0,1,0-2.266-.5q-1,4.835-1.583,9.381a1.145,1.145,0,0,0-.5.5,10.92,10.92,0,0,0-3.416-.035,1.18,1.18,0,0,0-.354-.5,67.8,67.8,0,0,0-2.027-9.4,1.16,1.16,0,0,0-2.226.647,64.459,64.459,0,0,1,2.36,12.633v.279a1.087,1.087,0,0,0-.035.184,41.093,41.093,0,0,1-3.157,12.837A193.19,193.19,0,0,0,689.4,56.44a1.16,1.16,0,1,0-2.315.065c.363,12.145-.09,22.278-1.349,30.125a1.255,1.255,0,0,0,0,.189q-6.075,9.461-17.886,16.263H655.266a.956.956,0,0,0,0,1.912h84.271a.956.956,0,1,0,0-1.912ZM697.625,80.889c.164,2.032.423,3.983.762,5.935-.5-1.295-.956-2.584-1.364-3.859C697.237,82.273,697.436,81.581,697.625,80.889Zm-3.371-13.141c0,.194.025.388.04.578s.03.388.04.583h2.988A55.268,55.268,0,0,1,695.8,78.7a55.688,55.688,0,0,1-1.389-8.166c-.045-.538-.085-1.076-.115-1.608a3.276,3.276,0,0,0-.035-.583,3.192,3.192,0,0,1,0-.578ZM693.99,80.9c.189.682.383,1.364.6,2.051q-.827,2.589-1.892,5.233A67.736,67.736,0,0,0,693.99,80.9Zm-9.072,22.168H672.246c9.67-6.279,16.2-14.1,19.539-23.368a71.37,71.37,0,0,1-6.866,23.368Zm10.556,0q.194-1.633.349-3.366.149,1.733.344,3.366Zm8.465,0h-6.608a146.686,146.686,0,0,1-.916-14.938l-.03-.075V83.02a.568.568,0,1,0-1.13,0v4.994a.38.38,0,0,0,0,.07,147.436,147.436,0,0,1-.921,14.978h-6.852c.249-.528,5.921-10.3,7.748-14.978V83.015a.578.578,0,0,1,.578-.578h.025a.578.578,0,0,1,.578.578v5.119c1.783,4.521,7.5,14.794,7.583,14.938Zm2.774,0h-.11c-.279-.5-.548-.971-.812-1.469A55.589,55.589,0,0,1,699.7,75.959c4.063,12.573,10.78,21.645,20.072,27.113Z" transform="translate(-311.424)" fill="#d4d4d4"/>
  </g>
</svg>
