<svg xmlns="http://www.w3.org/2000/svg" xmlns:xlink="http://www.w3.org/1999/xlink" width="1920" height="244.866" viewBox="0 0 1920 244.866">
  <defs>
    <linearGradient id="linear-gradient" x1="0.5" y1="1.191" x2="0.5" y2="-0.226" gradientUnits="objectBoundingBox">
      <stop offset="0" stop-color="#fff"/>
      <stop offset="1" stop-color="#1a1818"/>
    </linearGradient>
    <linearGradient id="linear-gradient-2" x1="0.5" y1="1.093" x2="0.5" y2="-0.324" gradientUnits="objectBoundingBox">
      <stop offset="0" stop-color="#eae9e9"/>
      <stop offset="0.58" stop-color="#cecdcd"/>
      <stop offset="1" stop-color="#c0bfbf"/>
    </linearGradient>
    <linearGradient id="linear-gradient-3" x1="0.5" y1="1.098" x2="0.5" y2="-0.319" xlink:href="#linear-gradient-2"/>
    <linearGradient id="linear-gradient-4" x1="0.5" y1="1.102" x2="0.5" y2="-0.315" xlink:href="#linear-gradient-2"/>
    <linearGradient id="linear-gradient-5" x1="0.5" y1="1.106" x2="0.5" y2="-0.311" xlink:href="#linear-gradient-2"/>
    <linearGradient id="linear-gradient-6" x1="0.5" y1="1.11" x2="0.5" y2="-0.307" xlink:href="#linear-gradient-2"/>
    <linearGradient id="linear-gradient-7" x1="0.5" y1="1.114" x2="0.5" y2="-0.303" xlink:href="#linear-gradient-2"/>
    <linearGradient id="linear-gradient-8" x1="0.5" y1="1.119" x2="0.5" y2="-0.298" xlink:href="#linear-gradient-2"/>
    <linearGradient id="linear-gradient-9" x1="0.5" y1="1.123" x2="0.5" y2="-0.294" xlink:href="#linear-gradient-2"/>
    <linearGradient id="linear-gradient-10" x1="0.5" y1="1.127" x2="0.5" y2="-0.29" xlink:href="#linear-gradient-2"/>
    <linearGradient id="linear-gradient-11" x1="0.5" y1="1.131" x2="0.5" y2="-0.286" xlink:href="#linear-gradient-2"/>
    <linearGradient id="linear-gradient-12" x1="0.5" y1="1.136" x2="0.5" y2="-0.281" xlink:href="#linear-gradient-2"/>
    <linearGradient id="linear-gradient-13" x1="0.5" y1="1.14" x2="0.5" y2="-0.277" xlink:href="#linear-gradient-2"/>
    <linearGradient id="linear-gradient-14" x1="0.5" y1="1.144" x2="0.5" y2="-0.273" xlink:href="#linear-gradient-2"/>
    <linearGradient id="linear-gradient-15" x1="0.5" y1="1.148" x2="0.5" y2="-0.269" xlink:href="#linear-gradient-2"/>
    <linearGradient id="linear-gradient-16" x1="0.5" y1="1.153" x2="0.5" y2="-0.264" xlink:href="#linear-gradient-2"/>
    <linearGradient id="linear-gradient-17" x1="0.5" y1="1.157" x2="0.5" y2="-0.26" xlink:href="#linear-gradient-2"/>
    <linearGradient id="linear-gradient-18" x1="0.5" y1="1.161" x2="0.5" y2="-0.256" xlink:href="#linear-gradient-2"/>
    <linearGradient id="linear-gradient-19" x1="0.5" y1="1.165" x2="0.5" y2="-0.252" xlink:href="#linear-gradient-2"/>
    <linearGradient id="linear-gradient-20" x1="0.5" y1="1.169" x2="0.5" y2="-0.248" xlink:href="#linear-gradient-2"/>
    <linearGradient id="linear-gradient-21" x1="0.5" y1="1.174" x2="0.5" y2="-0.243" xlink:href="#linear-gradient-2"/>
    <linearGradient id="linear-gradient-22" x1="0.5" y1="1.178" x2="0.5" y2="-0.239" xlink:href="#linear-gradient-2"/>
    <linearGradient id="linear-gradient-23" x1="0.5" y1="1.182" x2="0.5" y2="-0.235" xlink:href="#linear-gradient-2"/>
    <linearGradient id="linear-gradient-24" x1="0.5" y1="1.186" x2="0.5" y2="-0.231" xlink:href="#linear-gradient-2"/>
    <linearGradient id="linear-gradient-25" x1="0.5" y1="1.191" x2="0.5" y2="-0.226" xlink:href="#linear-gradient-2"/>
    <linearGradient id="linear-gradient-26" x1="0.478" y1="-0.309" x2="0.522" y2="1.316" gradientUnits="objectBoundingBox">
      <stop offset="0" stop-color="#4d4d4d"/>
      <stop offset="1" stop-color="#040506"/>
    </linearGradient>
    <linearGradient id="linear-gradient-27" x1="0.435" y1="-0.382" x2="0.565" y2="1.39" xlink:href="#linear-gradient-26"/>
    <linearGradient id="linear-gradient-28" x1="0.458" y1="-0.458" x2="0.537" y2="1.31" xlink:href="#linear-gradient-26"/>
    <linearGradient id="linear-gradient-29" x1="0.45" y1="-0.465" x2="0.542" y2="1.319" xlink:href="#linear-gradient-26"/>
    <linearGradient id="linear-gradient-30" x1="0.464" y1="-0.478" x2="0.532" y2="1.294" xlink:href="#linear-gradient-26"/>
    <linearGradient id="linear-gradient-31" x1="0.433" y1="-0.432" x2="0.562" y2="1.298" xlink:href="#linear-gradient-26"/>
    <linearGradient id="linear-gradient-32" x1="0.453" y1="-0.425" x2="0.543" y2="1.293" xlink:href="#linear-gradient-26"/>
    <linearGradient id="linear-gradient-33" x1="0.398" y1="-0.456" x2="0.589" y2="1.284" xlink:href="#linear-gradient-26"/>
    <linearGradient id="linear-gradient-34" x1="0.32" y1="-0.442" x2="0.579" y2="1.305" xlink:href="#linear-gradient-26"/>
    <linearGradient id="linear-gradient-35" x1="0.401" y1="-0.451" x2="0.585" y2="1.309" xlink:href="#linear-gradient-26"/>
    <linearGradient id="linear-gradient-36" x1="0.413" y1="-0.472" x2="0.571" y2="1.293" xlink:href="#linear-gradient-26"/>
    <linearGradient id="linear-gradient-37" x1="0.475" y1="-0.379" x2="0.521" y2="1.248" xlink:href="#linear-gradient-26"/>
    <linearGradient id="linear-gradient-38" x1="0.473" y1="-0.406" x2="0.522" y2="1.244" xlink:href="#linear-gradient-26"/>
  </defs>
  <g id="Groupe_50" data-name="Groupe 50" transform="translate(0 -6253)">
    <rect id="Rectangle_47" data-name="Rectangle 47" width="1920" height="163" transform="translate(0 6253)" fill="#fff"/>
    <g id="Groupe_12" data-name="Groupe 12" transform="translate(624.432 6274.963)" opacity="0.08">
      <path id="Tracé_1" data-name="Tracé 1" d="M544.435,191.281c.374-.289.74-.571,1.113-.868,2.105-14.682-.113-30.841-11.306-43.959-10.977-13.5-30.928-23.96-59.317-36.088-.4.221-.788.432-1.182.647q-2.337,1.265-4.635,2.355c-.318.152-.635.3-.953.449q-2.508,1.159-4.974,2.123c-.336.131-.671.258-1.006.387q-2.2.831-4.36,1.527c-.331.105-.664.211-.993.312q-2.419.746-4.8,1.334c-.291.073-.581.141-.87.21q-2.19.519-4.351.915c-.227.042-.45.084-.676.123q-2.461.434-4.89.722c-.258.031-.516.057-.774.085q-2.085.229-4.141.361c-.283.019-.568.037-.85.053-1.571.087-3.13.134-4.686.142q-2.961.017-5.891-.144c-.555-.029-1.107-.069-1.66-.109q-2.131-.147-4.252-.38c-.817-.089-1.628-.187-2.439-.295-1.492-.2-2.984-.425-4.466-.681-.444-.074-.886-.148-1.327-.229q-2.856-.522-5.688-1.175c-.723-.166-1.445-.344-2.166-.522q-2.013-.5-4.019-1.052c-.63-.173-1.262-.353-1.89-.536q-2.094-.61-4.179-1.281c-.618-.2-1.238-.4-1.856-.6q-2.794-.93-5.569-1.96c-.54-.2-1.08-.405-1.617-.608q-2.018-.765-4.027-1.575-1.136-.458-2.267-.928-2.225-.923-4.441-1.9c-.364-.16-.727-.318-1.091-.48q-2.739-1.218-5.467-2.5c-.732-.345-1.465-.7-2.2-1.048q-1.9-.913-3.792-1.852-.908-.452-1.816-.907-2.109-1.061-4.211-2.151c-.535-.279-1.069-.553-1.6-.834q-2.733-1.431-5.453-2.9-.812-.438-1.617-.88-1.929-1.047-3.855-2.111-.993-.551-1.989-1.1-5.592-3.115-11.138-6.3l-1.393-.8c-3.687-2.11-7.356-4.219-11.005-6.3h0q-.311-.18-.623-.355h0q-5.388-3.07-10.707-6.013c-.25-.14-.5-.279-.756-.418l0,0c-.2-.114-.411-.226-.616-.337v0c-.1-.052-.191-.1-.288-.157-3.587-1.961-7.149-3.854-10.68-5.649-.1-.054-.209-.109-.312-.159h0c-.2-.1-.4-.2-.6-.3v0c-.332-.166-.663-.33-.993-.5q-1.725-.863-3.442-1.688c-.6-.288-1.191-.572-1.782-.851q-1.939-.914-3.866-1.778l-.993-.447v0l-.592-.26h0c-.215-.094-.429-.185-.643-.278q-2.106-.912-4.2-1.757-.819-.329-1.636-.646-1.693-.662-3.376-1.27c-.332-.12-.665-.242-.994-.359l0,0c-.194-.066-.388-.137-.582-.2h0c-.16-.058-.321-.11-.482-.165q-2.358-.81-4.694-1.51l-.178-.053q-2.393-.708-4.762-1.292l-.5-.124v0c-.189-.046-.378-.089-.567-.133l0,0c-.3-.072-.607-.137-.91-.206q-1.653-.371-3.291-.675-.792-.146-1.574-.279-1.977-.325-3.94-.556c-.223-.027-.443-.054-.664-.079v0l-.554-.058v0c-.216-.021-.43-.038-.647-.058q-1.944-.18-3.873-.255c-.5-.021-1.005-.034-1.505-.043q-1.615-.03-3.223.013c-.305.009-.61.013-.918.027l-.006,0-.543.024.006,0c-.14.007-.278.018-.419.023q-2.281.126-4.548.4c-.117.014-.234.031-.35.045q-2.1.265-4.18.66c-.162.032-.328.061-.489.093l-.01.007-.536.106.011-.006c-.279.057-.557.12-.834.179q-1.578.344-3.151.76-.717.189-1.437.392-2.019.576-4.031,1.27l-.4.134v0c-.178.061-.356.126-.532.19l.005,0q-1.557.557-3.108,1.18c-.25.1-.5.2-.748.3q-1.686.693-3.369,1.461c-.023.012-.048.022-.072.033q-1.229.564-2.464,1.166a.058.058,0,0,0-.015.011l-.522.255.012-.007c-.182.089-.363.18-.546.273-.234.116-.466.233-.7.352q-1.589.81-3.171,1.678l-.312.169q-1.686.928-3.365,1.915l-.763.448c-.283.171-.569.34-.852.51-.008.006-.016.01-.023.016-.175.1-.348.21-.524.317a.123.123,0,0,1,.025-.017c-.571.345-1.143.7-1.716,1.054-.158.1-.315.2-.472.3q-1.671,1.044-3.337,2.135c-.249.165-.5.329-.75.495q-1.7,1.119-3.4,2.276c-23.961,16.234-43.233,28.589-59.868,39.924-17.09,11.489-31.542,21.959-56.379,37.912,19.586-11.834,40.119-22.375,60.778-28.151a143.586,143.586,0,0,1,61.961-3.968c41.165,6.165,81.979,29.327,119.975,50.729,38.3,21.709,72.769,41.291,108.037,50.849,17.95,4.926,36.017,7.225,56.37,5.145,20.3-2.406,42.884-9.193,68.617-30.062C544.352,191.81,544.394,191.545,544.435,191.281Z" fill="url(#linear-gradient)"/>
      <g id="Groupe_3" data-name="Groupe 3">
        <path id="Tracé_2" data-name="Tracé 2" d="M551.761,183.284c-26.728,23.729-49.963,31.634-70.739,34.786-20.832,2.774-39.2.792-57.471-3.988C387.7,204.826,352.6,184.923,313.5,162.7c-38.763-21.9-80.4-45.661-121.887-51.243a139.322,139.322,0,0,0-62.024,5.382c-20.512,6.352-40.712,17.5-59.566,29.292,22.528-14.9,36.464-24.539,53.8-35.763,16.886-11.06,37.174-23.709,61.928-40.895,20.688-15.785,40.43-25.636,61.607-23.725,21.136,1.382,44.141,13.345,68.6,27.261,24.486,13.907,49.87,29.1,75.888,37.521,26.208,7.914,53.04,11.808,85.005-7.153,29.747,11.242,50.888,20.857,62.6,34.356C551.4,150.785,553.913,167.724,551.761,183.284Z" fill="#4e4942"/>
        <path id="Tracé_3" data-name="Tracé 3" d="M90.294,134.138c-6.27,3.456-12.572,7.183-19.065,11.206,21.978-14.576,35.826-24.121,53.051-35.267,16.785-10.989,36.952-23.58,61.479-40.605,3.236-2.413,6.471-4.742,9.7-6.92-22.7,15.439-41.822,27.716-57.665,38.546C121.6,112.046,108.688,121.547,90.294,134.138Z" fill="url(#linear-gradient-2)"/>
        <path id="Tracé_4" data-name="Tracé 4" d="M110.037,124.212c-6.251,2.809-12.474,5.95-18.732,9.371,18.237-12.514,31.1-22.019,47.233-32.955,15.788-10.822,34.843-23.075,57.441-38.427,3.228-2.163,6.453-4.175,9.675-5.987C185,70.006,167.326,81.709,152.662,92.355,137.715,103.079,125.776,112.743,110.037,124.212Z" fill="url(#linear-gradient-3)"/>
        <path id="Tracé_5" data-name="Tracé 5" d="M129.917,116.528a187.5,187.5,0,0,0-18.865,7.232c15.623-11.431,27.509-21.106,42.386-31.818,14.6-10.636,32.186-22.306,52.738-36.02a97.734,97.734,0,0,1,9.677-4.743c-18.527,12.367-34.486,23.453-47.789,33.946C154.529,95.654,143.65,105.594,129.917,116.528Z" fill="url(#linear-gradient-4)"/>
        <path id="Tracé_6" data-name="Tracé 6" d="M150.1,111.537a148.986,148.986,0,0,0-19.162,4.665c13.643-10.916,24.465-20.87,37.925-31.4,13.228-10.486,29.1-21.544,47.508-33.845a74.593,74.593,0,0,1,9.738-3.28c-16.327,11.294-30.393,21.911-42.192,32.362C171.929,90.5,162.207,100.79,150.1,111.537Z" fill="url(#linear-gradient-5)"/>
        <path id="Tracé_7" data-name="Tracé 7" d="M170.6,109.578a135.314,135.314,0,0,0-19.46,1.783c12.026-10.744,21.687-21.054,33.6-31.51,11.72-10.453,25.687-21.053,41.9-32.3a65.254,65.254,0,0,1,9.857-1.695,309.928,309.928,0,0,0-36.332,31.667C189.806,88.084,181.308,98.8,170.6,109.578Z" fill="url(#linear-gradient-6)"/>
        <path id="Tracé_8" data-name="Tracé 8" d="M191.351,110.741a141.073,141.073,0,0,0-19.685-1.179c10.633-10.781,19.067-21.525,29.341-32.1A305.393,305.393,0,0,1,237.036,45.8a66.63,66.63,0,0,1,10.035-.084C222.642,66.444,209.423,88.648,191.351,110.741Z" fill="url(#linear-gradient-7)"/>
        <path id="Tracé_9" data-name="Tracé 9" d="M212.217,114.852a167.246,167.246,0,0,0-19.8-3.97c17.96-22.116,31.016-44.4,55.2-65.123a78.061,78.061,0,0,1,10.262,1.472C238.248,68.44,228.249,92.253,212.217,114.852Z" fill="url(#linear-gradient-8)"/>
        <path id="Tracé_10" data-name="Tracé 10" d="M233.06,121.5c-6.577-2.451-13.174-4.6-19.777-6.37,15.935-22.624,25.771-46.525,45.156-67.783a103.176,103.176,0,0,1,10.514,2.9C254.148,72.781,247.31,98.39,233.06,121.5Z" fill="url(#linear-gradient-9)"/>
        <path id="Tracé_11" data-name="Tracé 11" d="M253.753,130.151c-6.507-2.986-13.053-5.765-19.628-8.249,14.167-23.137,20.848-48.841,35.4-71.46,3.55,1.2,7.145,2.587,10.779,4.142C270.34,79.108,266.478,106.565,253.753,130.151Z" fill="url(#linear-gradient-10)"/>
        <path id="Tracé_12" data-name="Tracé 12" d="M274.166,140.187c-6.4-3.328-12.86-6.54-19.36-9.551,12.654-23.607,16.372-51.159,26.089-75.8,3.642,1.574,7.321,3.306,11.041,5.16C286.789,86.987,285.613,116.2,274.166,140.187Z" fill="url(#linear-gradient-11)"/>
        <path id="Tracé_13" data-name="Tracé 13" d="M294.2,151.011c-6.272-3.49-12.609-6.945-19-10.284,11.39-24.009,12.436-53.3,17.337-80.431,3.722,1.867,7.484,3.855,11.281,5.925C303.442,95.952,304.594,126.687,294.2,151.011Z" fill="url(#linear-gradient-12)"/>
        <path id="Tracé_14" data-name="Tracé 14" d="M313.811,162.091c-6.131-3.494-12.327-7.02-18.591-10.513,10.341-24.343,9.082-55.146,9.214-85.021,3.8,2.079,7.633,4.234,11.5,6.431C320.254,105.532,323.331,137.486,313.811,162.091Z" fill="url(#linear-gradient-13)"/>
        <path id="Tracé_15" data-name="Tracé 15" d="M332.964,172.972c-5.988-3.369-12.038-6.824-18.16-10.315,9.48-24.617,6.314-56.625,1.753-89.313,3.866,2.2,7.762,4.439,11.683,6.679C337.163,115.278,341.761,148.124,332.964,172.972Z" fill="url(#linear-gradient-14)"/>
        <path id="Tracé_16" data-name="Tracé 16" d="M351.688,183.288q-8.788-4.711-17.753-9.771c8.761-24.859,4.1-57.741-5.059-93.131,3.926,2.24,7.873,4.478,11.844,6.681C354.133,124.783,359.87,158.211,351.688,183.288Z" fill="url(#linear-gradient-15)"/>
        <path id="Tracé_17" data-name="Tracé 17" d="M370.048,192.741q-8.636-4.237-17.409-8.946c8.151-25.089,2.366-58.536-11.274-96.371,3.975,2.2,7.969,4.36,11.985,6.45C371.139,133.679,377.693,167.435,370.048,192.741Z" fill="url(#linear-gradient-16)"/>
        <path id="Tracé_18" data-name="Tracé 18" d="M388.137,201.083q-8.541-3.66-17.16-7.888C378.6,167.876,372.009,134.11,354,94.211c4.019,2.083,8.055,4.094,12.112,6C388.176,141.631,395.313,175.538,388.137,201.083Z" fill="url(#linear-gradient-17)"/>
        <path id="Tracé_19" data-name="Tracé 19" d="M406.105,208.094q-8.519-2.975-17.044-6.617c7.155-25.558-.011-59.469-22.292-100.956,4.06,1.9,8.142,3.688,12.247,5.343C405.287,148.337,412.886,182.293,406.105,208.094Z" fill="url(#linear-gradient-18)"/>
        <path id="Tracé_20" data-name="Tracé 20" d="M424.134,213.533c-5.733-1.443-11.423-3.162-17.106-5.119,6.764-25.814-.86-59.774-27.348-102.283q6.162,2.463,12.4,4.477C422.534,153.478,430.6,187.442,424.134,213.533Z" fill="url(#linear-gradient-19)"/>
        <path id="Tracé_21" data-name="Tracé 21" d="M442.445,217.12a167.4,167.4,0,0,1-17.386-3.354c6.452-26.107-1.636-60.073-32.308-102.943,4.16,1.315,8.352,2.456,12.583,3.391,16.817,21.292,28.355,40.344,33.995,57.459A86.3,86.3,0,0,1,442.445,217.12Z" fill="url(#linear-gradient-20)"/>
        <path id="Tracé_22" data-name="Tracé 22" d="M461.352,218.458a140.715,140.715,0,0,1-17.956-1.21,86.073,86.073,0,0,0-3.166-45.462c-5.677-17.112-17.284-36.147-34.21-57.422a118.875,118.875,0,0,0,12.832,2.053c18.956,20.751,31.877,39.3,38.3,56.317A81.756,81.756,0,0,1,461.352,218.458Z" fill="url(#linear-gradient-21)"/>
        <path id="Tracé_23" data-name="Tracé 23" d="M481.247,216.941a126.257,126.257,0,0,1-18.9,1.514,81.494,81.494,0,0,0-4.265-45.737c-6.462-17.008-19.461-35.522-38.529-56.232a99.427,99.427,0,0,0,13.155.407c21.23,19.668,35.707,37.287,43.049,54.046A76.405,76.405,0,0,1,481.247,216.941Z" fill="url(#linear-gradient-22)"/>
        <path id="Tracé_24" data-name="Tracé 24" d="M502.647,211.594a124.129,124.129,0,0,1-20.348,5.177,76.119,76.119,0,0,0-5.564-46.016c-7.394-16.737-21.959-34.295-43.308-53.893a89.137,89.137,0,0,0,13.578-1.637c23.7,17.877,40,33.925,48.478,50.152C504.169,181.419,505.044,197.638,502.647,211.594Z" fill="url(#linear-gradient-23)"/>
        <path id="Tracé_25" data-name="Tracé 25" d="M526.264,200.745A136.993,136.993,0,0,1,503.8,211.19c2.391-13.982,1.487-30.226-7.266-46.224-8.547-16.19-24.942-32.135-48.782-49.9a87.7,87.7,0,0,0,14.133-4.222c26.467,15.105,44.943,28.585,54.88,43.783C526.918,169.532,528.534,186.151,526.264,200.745Z" fill="url(#linear-gradient-24)"/>
        <path id="Tracé_26" data-name="Tracé 26" d="M553.03,181.458a172.205,172.205,0,0,1-25.478,18.534c2.259-14.634.594-31.267-9.644-46.09-10.023-15.123-28.622-28.435-55.241-43.367a97.031,97.031,0,0,0,14.836-7.554c29.622,10.955,50.782,20.265,62.629,33.5C552.206,149.261,554.969,165.965,553.03,181.458Z" fill="url(#linear-gradient-25)"/>
      </g>
      <g id="Groupe_11" data-name="Groupe 11">
        <g id="Groupe_4" data-name="Groupe 4">
          <path id="Tracé_27" data-name="Tracé 27" d="M145.183,99.1c-5.381,2.514-10.663,5.32-15.832,8.293,18.409-13.191,40.877-27.875,69.42-47.027,3.335-2.139,6.662-4.1,9.992-5.839C182.85,71.685,162.081,85.95,145.183,99.1Z" fill="#4d4d4d"/>
          <path id="Tracé_28" data-name="Tracé 28" d="M144.58,99.179c-5.341,2.557-10.588,5.4-15.72,8.4,18.578-13.2,41.4-28.059,70.257-47.456,3.3-2.142,6.593-4.11,9.888-5.859C182.784,71.615,161.661,86.026,144.58,99.179Z" fill="url(#linear-gradient-26)"/>
        </g>
        <g id="Groupe_5" data-name="Groupe 5">
          <path id="Tracé_29" data-name="Tracé 29" d="M416.25,180.42c-5.7-1.712-11.378-3.693-17.047-5.9-1.957-20.29-11.244-44.221-26.512-71.29,4.215,1.846,8.454,3.566,12.722,5.122C403.271,135.923,413.785,159.958,416.25,180.42Z" fill="#4d4d4d"/>
          <path id="Tracé_30" data-name="Tracé 30" d="M414.743,179.157q-8.535-2.633-17.016-6.017c-2.092-20.37-11.492-44.379-26.682-71.472,4.179,1.858,8.381,3.592,12.606,5.17C401.466,134.479,412.13,158.611,414.743,179.157Z" fill="url(#linear-gradient-27)"/>
        </g>
        <g id="Groupe_6" data-name="Groupe 6">
          <path id="Tracé_31" data-name="Tracé 31" d="M468.494,186.916a123.006,123.006,0,0,1-18.3.01c-3.5-20.734-16.5-44.315-39.5-71.617a110.377,110.377,0,0,0,13.365,1.545C449.845,143.194,464.336,166.073,468.494,186.916Z" fill="#4d4d4d"/>
          <path id="Tracé_32" data-name="Tracé 32" d="M491.348,182.808a113.4,113.4,0,0,1-19.517,3.8c-4.292-20.857-19.07-43.564-45.372-69.66a93.234,93.234,0,0,0,13.8-.612C469.592,140.555,486.194,161.915,491.348,182.808Z" fill="#4d4d4d"/>
          <path id="Tracé_33" data-name="Tracé 33" d="M516.276,172.434a121.929,121.929,0,0,1-21.328,9.272c-5.337-20.881-22.3-41.923-52.193-65.7a87.412,87.412,0,0,0,14.391-3.409C490.439,133.2,509.733,151.763,516.276,172.434Z" fill="#4d4d4d"/>
          <path id="Tracé_34" data-name="Tracé 34" d="M489.686,182.366a113.317,113.317,0,0,1-19.392,3.532c-4.487-20.927-19.5-43.743-45.866-70.06a93.727,93.727,0,0,0,13.647-.4C467.481,139.945,484.329,161.418,489.686,182.366Z" fill="url(#linear-gradient-28)"/>
          <path id="Tracé_35" data-name="Tracé 35" d="M466.788,186.175a124.362,124.362,0,0,1-18.209-.209c-3.678-20.815-16.886-44.508-39.892-71.978a111.654,111.654,0,0,0,13.227,1.71C447.735,142.265,462.443,165.26,466.788,186.175Z" fill="url(#linear-gradient-29)"/>
          <path id="Tracé_36" data-name="Tracé 36" d="M514.633,172.342a120.771,120.771,0,0,1-21.166,8.918c-5.547-20.937-22.78-42.069-52.784-66.125A87.027,87.027,0,0,0,454.9,112.01C488.307,132.975,507.87,151.639,514.633,172.342Z" fill="url(#linear-gradient-30)"/>
        </g>
        <g id="Groupe_7" data-name="Groupe 7">
          <path id="Tracé_37" data-name="Tracé 37" d="M252.328,98.7c-6.047-2.425-12.084-4.557-18.1-6.322,7.914-15.229,16.385-30.108,27.57-44.209A113.063,113.063,0,0,1,272.751,51.6C264.544,66.693,258.576,82.685,252.328,98.7Z" fill="#4d4d4d"/>
          <path id="Tracé_38" data-name="Tracé 38" d="M273.688,108.325c-6.042-2.986-12.1-5.785-18.145-8.309,5.963-16.158,11.5-32.368,19.175-47.678,3.714,1.425,7.468,3.042,11.267,4.81C281.283,73.857,278.143,91.371,273.688,108.325Z" fill="#4d4d4d"/>
          <path id="Tracé_39" data-name="Tracé 39" d="M294.967,119.51c-6-3.308-12.027-6.53-18.068-9.58,4.2-17.093,6.931-34.845,11.111-51.828,3.813,1.823,7.67,3.79,11.564,5.86C298.347,82.588,297.843,101.679,294.967,119.51Z" fill="#4d4d4d"/>
          <path id="Tracé_40" data-name="Tracé 40" d="M272.582,107c-6.025-2.949-12.059-5.7-18.083-8.178,6.052-16.107,11.807-32.207,19.745-47.41,3.663,1.378,7.373,2.951,11.127,4.68C280.423,72.675,277.093,90.08,272.582,107Z" fill="url(#linear-gradient-31)"/>
          <path id="Tracé_41" data-name="Tracé 41" d="M251.114,97.463c-6.023-2.366-12.034-4.436-18.02-6.129C241.144,76.17,249.9,61.4,261.382,47.371a109.491,109.491,0,0,1,10.808,3.286C263.693,65.638,257.474,81.508,251.114,97.463Z" fill="url(#linear-gradient-32)"/>
          <path id="Tracé_42" data-name="Tracé 42" d="M293.985,118.176c-5.986-3.288-11.995-6.482-18.018-9.5,4.24-17.07,7.127-34.73,11.516-51.6,3.771,1.783,7.581,3.714,11.431,5.747C297.491,81.336,296.87,100.351,293.985,118.176Z" fill="url(#linear-gradient-33)"/>
        </g>
        <g id="Groupe_8" data-name="Groupe 8">
          <path id="Tracé_43" data-name="Tracé 43" d="M316.384,131.636c-5.925-3.41-11.891-6.822-17.88-10.164,2.635-17.967,2.72-37.314,3.371-56.278,3.909,2.107,7.856,4.308,11.835,6.561C315.958,92.452,317.9,113.04,316.384,131.636Z" fill="#4d4d4d"/>
          <path id="Tracé_44" data-name="Tracé 44" d="M315,130.039c-5.917-3.4-11.869-6.8-17.846-10.116,2.661-17.95,2.9-37.2,3.8-56.015,3.865,2.07,7.765,4.237,11.7,6.456C314.675,90.921,316.505,111.44,315,130.039Z" fill="url(#linear-gradient-34)"/>
        </g>
        <g id="Groupe_9" data-name="Groupe 9">
          <path id="Tracé_45" data-name="Tracé 45" d="M364.632,158.619q-8.592-4.457-17.28-9.307c-.075-19.452-5.132-41.816-12.335-65.414,4.079,2.3,8.184,4.586,12.313,6.812C357.253,115.724,363.844,138.818,364.632,158.619Z" fill="#4d4d4d"/>
          <path id="Tracé_46" data-name="Tracé 46" d="M384.753,168.421q-8.516-3.848-17.082-8.241c-.9-19.854-7.748-43.053-18.148-68.295,4.136,2.2,8.293,4.342,12.471,6.381C375.043,124.627,383.249,148.309,384.753,168.421Z" fill="#4d4d4d"/>
          <path id="Tracé_47" data-name="Tracé 47" d="M363.367,157.168c-5.723-2.986-11.474-6.117-17.264-9.348-.143-19.493-5.2-41.859-12.247-65.374,4.039,2.285,8.1,4.553,12.193,6.767C355.853,114.178,362.484,137.306,363.367,157.168Z" fill="url(#linear-gradient-35)"/>
          <path id="Tracé_48" data-name="Tracé 48" d="M383.64,167.123q-8.5-3.881-17.061-8.294c-1.011-19.921-7.913-43.166-18.229-68.378,4.094,2.2,8.212,4.327,12.352,6.364C373.7,123.181,382.013,146.933,383.64,167.123Z" fill="url(#linear-gradient-36)"/>
        </g>
        <g id="Groupe_10" data-name="Groupe 10">
          <path id="Tracé_49" data-name="Tracé 49" d="M184.079,87.472a113.878,113.878,0,0,0-17.067,3.422c14.726-13.3,32.715-26.969,55-42a67.929,67.929,0,0,1,10.122-2.466C212.679,60.422,197.052,73.894,184.079,87.472Z" fill="#4d4d4d"/>
          <path id="Tracé_50" data-name="Tracé 50" d="M204.663,86.926a111.229,111.229,0,0,0-17.519.219C199.8,73.5,214.992,60.03,233.944,46.156a65.525,65.525,0,0,1,10.315-.547A260.929,260.929,0,0,0,204.663,86.926Z" fill="#4d4d4d"/>
          <path id="Tracé_51" data-name="Tracé 51" d="M183.393,87.071a114.142,114.142,0,0,0-16.964,3.619c14.9-13.28,33.212-27.027,55.776-42.175a67.887,67.887,0,0,1,10-2.542C212.471,60.036,196.532,73.527,183.393,87.071Z" fill="url(#linear-gradient-37)"/>
          <path id="Tracé_52" data-name="Tracé 52" d="M204.038,86.284a110.161,110.161,0,0,0-17.422.406C199.417,73.079,214.9,59.6,234.1,45.676a64.383,64.383,0,0,1,10.184-.63A263.347,263.347,0,0,0,204.038,86.284Z" fill="url(#linear-gradient-38)"/>
        </g>
      </g>
    </g>
  </g>
</svg>
